<svg id="visual" viewBox="0 0 900 600" width="900" height="600" xmlns="http://www.w3.org/2000/svg" xmlns:xlink="http://www.w3.org/1999/xlink" version="1.1"><g stroke-width="1" stroke-linejoin="bevel"><path d="M383.7 286L232.1 336L336.7 387Z" fill="#1d4e6b" stroke="#1d4e6b"></path><path d="M383.7 286L267.1 225L232.1 336Z" fill="#112e42" stroke="#112e42"></path><path d="M232.1 336L211.1 458L336.7 387Z" fill="#246688" stroke="#246688"></path><path d="M383.7 286L401.7 135L267.1 225Z" fill="#112e42" stroke="#112e42"></path><path d="M83.6 236L109.6 355L232.1 336Z" fill="#00101c" stroke="#00101c"></path><path d="M232.1 336L109.6 355L211.1 458Z" fill="#00101c" stroke="#00101c"></path><path d="M211.1 458L352.7 522L336.7 387Z" fill="#0c2435" stroke="#0c2435"></path><path d="M336.7 387L560.3 332L383.7 286Z" fill="#15384f" stroke="#15384f"></path><path d="M401.7 135L222.1 113L267.1 225Z" fill="#0c2435" stroke="#0c2435"></path><path d="M267.1 225L139.6 171L232.1 336Z" fill="#205a7a" stroke="#205a7a"></path><path d="M222.1 113L139.6 171L267.1 225Z" fill="#277297" stroke="#277297"></path><path d="M139.6 171L83.6 236L232.1 336Z" fill="#00101c" stroke="#00101c"></path><path d="M561.3 506L560.3 332L336.7 387Z" fill="#1d4e6b" stroke="#1d4e6b"></path><path d="M383.7 286L557.3 205L401.7 135Z" fill="#0c2435" stroke="#0c2435"></path><path d="M560.3 332L557.3 205L383.7 286Z" fill="#112e42" stroke="#112e42"></path><path d="M557.3 205L496.3 104L401.7 135Z" fill="#205a7a" stroke="#205a7a"></path><path d="M401.7 135L308.1 0L222.1 113Z" fill="#081a28" stroke="#081a28"></path><path d="M260.1 600L352.7 522L211.1 458Z" fill="#0c2435" stroke="#0c2435"></path><path d="M260.1 600L340.7 600L352.7 522Z" fill="#00101c" stroke="#00101c"></path><path d="M352.7 522L561.3 506L336.7 387Z" fill="#297ea6" stroke="#297ea6"></path><path d="M141.6 600L260.1 600L211.1 458Z" fill="#1d4e6b" stroke="#1d4e6b"></path><path d="M0 452L102.6 524L109.6 355Z" fill="#205a7a" stroke="#205a7a"></path><path d="M109.6 355L102.6 524L211.1 458Z" fill="#112e42" stroke="#112e42"></path><path d="M409.7 0L308.1 0L401.7 135Z" fill="#277297" stroke="#277297"></path><path d="M222.1 113L113.6 0L139.6 171Z" fill="#081a28" stroke="#081a28"></path><path d="M0 98L0 251L83.6 236Z" fill="#081a28" stroke="#081a28"></path><path d="M83.6 236L0 251L109.6 355Z" fill="#00101c" stroke="#00101c"></path><path d="M0 98L83.6 236L139.6 171Z" fill="#205a7a" stroke="#205a7a"></path><path d="M464.3 600L561.3 506L352.7 522Z" fill="#297ea6" stroke="#297ea6"></path><path d="M0 251L0 416L109.6 355Z" fill="#15384f" stroke="#15384f"></path><path d="M340.7 600L464.3 600L352.7 522Z" fill="#081a28" stroke="#081a28"></path><path d="M496.3 104L409.7 0L401.7 135Z" fill="#277297" stroke="#277297"></path><path d="M0 600L141.6 600L102.6 524Z" fill="#15384f" stroke="#15384f"></path><path d="M102.6 524L141.6 600L211.1 458Z" fill="#19435d" stroke="#19435d"></path><path d="M0 416L0 452L109.6 355Z" fill="#112e42" stroke="#112e42"></path><path d="M685.9 452L658.9 346L560.3 332Z" fill="#0c2435" stroke="#0c2435"></path><path d="M560.3 332L677.9 202L557.3 205Z" fill="#1d4e6b" stroke="#1d4e6b"></path><path d="M675.9 0L513.3 0L496.3 104Z" fill="#246688" stroke="#246688"></path><path d="M308.1 0L113.6 0L222.1 113Z" fill="#19435d" stroke="#19435d"></path><path d="M677.9 174L496.3 104L557.3 205Z" fill="#297ea6" stroke="#297ea6"></path><path d="M496.3 104L513.3 0L409.7 0Z" fill="#00101c" stroke="#00101c"></path><path d="M113.6 0L0 98L139.6 171Z" fill="#297ea6" stroke="#297ea6"></path><path d="M658.9 346L677.9 202L560.3 332Z" fill="#205a7a" stroke="#205a7a"></path><path d="M677.9 202L677.9 174L557.3 205Z" fill="#0c2435" stroke="#0c2435"></path><path d="M801.4 306L774.4 190L677.9 202Z" fill="#00101c" stroke="#00101c"></path><path d="M677.9 202L774.4 190L677.9 174Z" fill="#19435d" stroke="#19435d"></path><path d="M561.3 506L685.9 452L560.3 332Z" fill="#112e42" stroke="#112e42"></path><path d="M671.9 600L685.9 452L561.3 506Z" fill="#0c2435" stroke="#0c2435"></path><path d="M0 452L0 600L102.6 524Z" fill="#277297" stroke="#277297"></path><path d="M113.6 0L0 0L0 98Z" fill="#112e42" stroke="#112e42"></path><path d="M464.3 600L671.9 600L561.3 506Z" fill="#00101c" stroke="#00101c"></path><path d="M801.4 306L658.9 346L685.9 452Z" fill="#1d4e6b" stroke="#1d4e6b"></path><path d="M801.4 306L677.9 202L658.9 346Z" fill="#1d4e6b" stroke="#1d4e6b"></path><path d="M677.9 174L675.9 0L496.3 104Z" fill="#205a7a" stroke="#205a7a"></path><path d="M731.4 67L675.9 0L677.9 174Z" fill="#00101c" stroke="#00101c"></path><path d="M671.9 600L763.4 474L685.9 452Z" fill="#1d4e6b" stroke="#1d4e6b"></path><path d="M774.4 190L731.4 67L677.9 174Z" fill="#205a7a" stroke="#205a7a"></path><path d="M763.4 474L801.4 306L685.9 452Z" fill="#00101c" stroke="#00101c"></path><path d="M671.9 600L768.4 600L763.4 474Z" fill="#15384f" stroke="#15384f"></path><path d="M900 356L900 292L801.4 306Z" fill="#205a7a" stroke="#205a7a"></path><path d="M900 68L799.4 0L731.4 67Z" fill="#205a7a" stroke="#205a7a"></path><path d="M731.4 67L799.4 0L675.9 0Z" fill="#0c2435" stroke="#0c2435"></path><path d="M900 68L731.4 67L774.4 190Z" fill="#277297" stroke="#277297"></path><path d="M900 356L801.4 306L763.4 474Z" fill="#081a28" stroke="#081a28"></path><path d="M801.4 306L900 292L774.4 190Z" fill="#246688" stroke="#246688"></path><path d="M900 464L900 356L763.4 474Z" fill="#00101c" stroke="#00101c"></path><path d="M900 600L900 464L763.4 474Z" fill="#205a7a" stroke="#205a7a"></path><path d="M900 292L900 68L774.4 190Z" fill="#205a7a" stroke="#205a7a"></path><path d="M768.4 600L900 600L763.4 474Z" fill="#15384f" stroke="#15384f"></path><path d="M900 68L900 0L799.4 0Z" fill="#205a7a" stroke="#205a7a"></path></g></svg>